HIERARCHY
ROOT Hips
{
  OFFSET 0 0 0
  CHANNELS 6 Xposition Yposition Zposition Zrotation Yrotation Xrotation
  JOINT LeftThigh
  {
    OFFSET 8.409438 0 -5.917753
    CHANNELS 3 Zrotation Yrotation Xrotation
    JOINT LeftLeg
    {
      OFFSET 0 0 -42.358652
      CHANNELS 3 Zrotation Yrotation Xrotation
      JOINT LeftFoot
      {
        OFFSET 0 0 -39.357303
        CHANNELS 3 Zrotation Yrotation Xrotation
      }
    }
  }
  JOINT RightThigh
  {
    OFFSET -8.409438 0 -5.917753
    CHANNELS 3 Zrotation Yrotation Xrotation
    JOINT RightLeg
    {
      OFFSET 0 0 -42.358652
      CHANNELS 3 Zrotation Yrotation Xrotation
      JOINT RightFoot
      {
        OFFSET 0 0 -39.357303
        CHANNELS 3 Zrotation Yrotation Xrotation
      }
    }
  }
  JOINT SpineLow
  {
    OFFSET 0 0 4.719101
    CHANNELS 3 Zrotation Yrotation Xrotation
    JOINT SpineMid
    {
      OFFSET 0 0 12.899191
      CHANNELS 3 Zrotation Yrotation Xrotation
      JOINT Chest
      {
        OFFSET 0 0 12.899191
        CHANNELS 3 Zrotation Yrotation Xrotation
        JOINT LeftShoulder
        {
          OFFSET 7.550562 1.41573 9.438202
          CHANNELS 3 Zrotation Yrotation Xrotation
          JOINT LeftArm
          {
            OFFSET 9.155056 0 4.247191
            CHANNELS 3 Zrotation Yrotation Xrotation
            JOINT LeftForearm
            {
              OFFSET 0 0 25.771955
              CHANNELS 3 Zrotation Yrotation Xrotation
              JOINT LeftHand
              {
                OFFSET 0 0 25.197169
                CHANNELS 3 Zrotation Yrotation Xrotation
              }
            }
          }
        }
        JOINT RightShoulder
        {
          OFFSET -7.550562 1.41573 9.438202
          CHANNELS 3 Zrotation Yrotation Xrotation
          JOINT RightArm
          {
            OFFSET -9.155056 0 4.247191
            CHANNELS 3 Zrotation Yrotation Xrotation
            JOINT RightForearm
            {
              OFFSET 0 0 -25.771955
              CHANNELS 3 Zrotation Yrotation Xrotation
              JOINT RightHand
              {
                OFFSET 0 0 -25.197169
                CHANNELS 3 Zrotation Yrotation Xrotation
              }
            }
          }
        }
        JOINT Neck
        {
          OFFSET 0 0 15.101124
          CHANNELS 3 Zrotation Yrotation Xrotation
          JOINT Head
          {
            OFFSET 0 0 11.325843
            CHANNELS 3 Zrotation Yrotation Xrotation
            End Site
            {
              OFFSET 0 0 14.157303
            }
          }
        }
      }
    }
  }
}
MOTION
Frames: 14
Frame Time: 0.0
0.0  89.887642  0.0  11.177945  -62.438024  -108.145797  45.683256  -30.030335  -32.088992  21.973595  27.657231  78.252953  -3.028691  0.535817  -0.96036  -19.351238  25.742847  -30.96277  9.832471  12.507063  51.064032  11.655922  5.297176  -6.174746  1.162667  1.324132  1.065657  3.238613  3.566335  2.978461  3.238613  3.566335  2.978461  -12.249657  22.761778  7.96811  -98.163958  54.66523  -72.350332  -37.199851  0.536432  81.071658  54.489982  -20.993156  21.077075  -4.736376  1.699054  21.174153  132.338788  29.740429  42.104084  -12.131258  3.715911  -77.670672  90.898088  11.06687  -24.549796  13.661201  -6.604293  2.898988  10.266211  -4.891516  2.321449  
0.0  89.887642  0.0  11.202155  -62.416712  -108.135871  45.614502  -30.011409  -32.192866  21.983446  27.434752  78.266533  -3.020127  0.531735  -0.98232  -19.216021  25.457234  -31.042362  9.814357  12.868228  51.421854  11.896144  5.284792  -6.189923  1.201037  1.344312  1.083622  3.345521  3.61879  3.030734  3.345521  3.61879  3.030734  -12.372462  22.64134  7.971812  -98.056344  54.639627  -72.114789  -37.225704  0.733898  81.068863  54.64342  -20.937612  21.009406  -4.632713  1.661542  21.270259  131.752473  30.047279  41.800025  -11.817852  3.892602  -77.554433  90.969877  10.973298  -24.221239  13.610531  -6.532729  2.669473  10.225648  -4.843116  2.147278  
0.0  89.887642  0.0  11.3126  -62.444525  -108.229054  45.535267  -30.001754  -32.256022  21.963272  27.247942  78.317704  -3.004562  0.547274  -1.017589  -19.596981  24.992734  -31.393464  10.713728  12.719753  51.762316  11.842394  5.288042  -6.090782  1.232489  1.351673  1.104938  3.433074  3.636311  3.091146  3.433073  3.636311  3.091146  -12.491468  22.606879  7.922471  -97.972434  54.670206  -71.968461  -37.27696  0.7722  80.975244  54.645318  -20.896255  21.076386  -4.708093  1.703485  21.225751  131.770646  30.061815  41.7712  -11.861161  3.996765  -77.447917  90.913518  10.911564  -24.055085  13.560391  -6.446655  2.504052  10.186217  -4.782373  2.020847  
0.0  89.887642  0.0  11.613058  -62.516932  -108.457276  45.412749  -29.951729  -32.31154  21.894084  27.188201  78.315206  -2.914929  0.5854  -1.008442  -19.996955  24.624027  -31.835497  11.84208  12.205824  52.050421  11.52166  5.176834  -5.884014  1.285727  1.380316  1.127899  3.581426  3.710768  3.158495  3.581426  3.710768  3.158495  -12.669996  22.463436  7.881977  -98.012399  54.683437  -71.944519  -37.337154  0.819728  80.767904  54.653048  -20.914726  21.302414  -4.611134  1.677608  21.332281  131.501278  30.269385  41.700346  -11.882946  4.05365  -77.318433  90.83697  10.88583  -23.920629  13.521302  -6.381538  2.31448  10.154863  -4.737827  1.876894  
0.0  89.887642  0.0  11.72962  -62.553254  -108.53865  45.245486  -29.988598  -32.378405  21.941921  27.05428  78.410946  -2.878154  0.590748  -1.003375  -20.283052  24.381222  -32.174777  12.64141  11.588484  52.309903  11.301392  5.173176  -5.726324  1.294233  1.386484  1.1447  3.605948  3.726275  3.205279  3.605948  3.726276  3.205279  -12.671992  22.38619  7.802543  -98.088391  54.833613  -71.993808  -37.386558  0.776311  80.644975  54.697583  -20.883528  21.417658  -4.560742  1.718521  21.276891  131.52701  30.276971  41.667752  -11.856028  4.103437  -77.19338  90.664918  10.93421  -23.804982  13.543058  -6.33346  2.215968  10.1701  -4.703848  1.802224  
0.0  89.887642  0.0  11.79197  -62.575899  -108.582062  45.040605  -30.009086  -32.473008  21.944823  26.950785  78.462721  -2.853396  0.589598  -0.975062  -20.639521  24.235992  -32.41503  13.394524  10.968848  52.380249  11.188173  5.128149  -5.576619  1.279653  1.389287  1.162918  3.567232  3.733655  3.254457  3.567232  3.733655  3.254457  -12.583853  22.272998  7.734048  -98.246793  54.894442  -72.225424  -37.429832  0.688459  80.405659  54.625379  -20.953613  21.672071  -4.121278  1.739993  21.392722  131.382925  30.426733  41.747897  -12.059415  4.019047  -77.059094  90.709253  11.120334  -24.078552  13.686713  -6.263539  2.127914  10.27679  -4.652877  1.736182  
0.0  89.887642  0.0  11.773446  -62.604418  -108.579252  44.918515  -30.007905  -32.579684  21.880457  26.793688  78.524521  -2.790898  0.592007  -0.920593  -20.618087  24.239628  -32.509687  13.605876  10.551884  52.483299  11.072499  5.061385  -5.416367  1.270748  1.387068  1.183957  3.543928  3.726895  3.311377  3.543927  3.726895  3.311377  -12.511179  22.163026  7.674234  -98.401435  55.086603  -72.393815  -37.501535  0.632298  80.312114  54.622125  -20.948104  21.732455  -4.017813  1.740802  21.275864  131.342359  30.418665  41.713398  -11.930262  3.978267  -76.999369  90.775777  11.233394  -24.11482  13.732259  -6.255208  2.087663  10.310495  -4.647386  1.706297  
0.0  89.887642  0.0  11.752657  -62.618083  -108.592076  44.740171  -29.970834  -32.679411  21.709547  26.645067  78.516752  -2.691291  0.643883  -0.850984  -20.647813  24.196307  -32.405358  13.693865  10.360423  52.379768  10.97868  5.125032  -5.293082  1.246398  1.384945  1.209228  3.478618  3.720987  3.37902  3.478618  3.720987  3.37902  -12.406444  22.005794  7.628109  -98.639187  55.115815  -72.714155  -37.574554  0.567115  80.0573  54.823648  -20.844564  21.747679  -3.731134  1.682766  21.278977  131.304655  30.461675  41.873475  -12.050746  3.856111  -76.917206  91.083096  11.328234  -24.35963  13.887802  -6.217352  2.04244  10.426564  -4.619532  1.673164  
0.0  89.887642  0.0  11.691715  -62.61402  -108.601582  44.612755  -29.933979  -32.757778  21.584626  26.488431  78.57762  -2.659111  0.628528  -0.812417  -20.462081  24.183568  -32.34803  13.599227  10.374954  52.462267  10.83463  5.102049  -5.177628  1.240567  1.390148  1.246116  3.465014  3.733539  3.479881  3.465014  3.733539  3.479881  -12.405164  21.810882  7.547745  -98.831593  55.207992  -72.957913  -37.665843  0.69964  80.01905  54.739824  -20.726811  21.872823  -3.726056  1.586535  21.068273  131.222782  30.416973  41.849428  -11.901017  3.797394  -76.909193  91.349187  11.397436  -24.428232  13.884155  -6.255111  1.976947  10.423153  -4.649363  1.624875  
0.0  89.887642  0.0  11.748202  -62.61258  -108.692754  44.458805  -29.885825  -32.789647  21.661958  26.206299  78.741627  -2.686206  0.588459  -0.781037  -19.857244  24.345147  -32.180758  13.010862  10.531216  52.558704  10.647277  4.938281  -4.979709  1.210457  1.404966  1.281592  3.385499  3.773782  3.576056  3.385499  3.773781  3.576056  -12.316712  21.577992  7.428604  -99.025865  55.149809  -73.337871  -37.707248  0.910708  79.945219  54.61586  -20.676547  22.024148  -3.594932  1.432949  20.8911  131.182904  30.360533  41.949296  -11.809989  3.722361  -76.871029  91.66495  11.404395  -24.313626  14.013611  -6.274726  1.883025  10.519168  -4.665866  1.556257  
0.0  89.887642  0.0  11.880667  -62.702124  -108.912569  44.381145  -29.909556  -32.70791  21.637533  26.081913  78.733981  -2.655674  0.582576  -0.722376  -19.653413  24.389016  -32.127634  12.947008  10.574999  52.631122  10.556001  4.924619  -4.882976  1.229899  1.430513  1.330405  3.442967  3.839916  3.712112  3.442967  3.839916  3.712112  -12.384009  21.320767  7.294329  -99.093649  55.186582  -73.562379  -37.802303  1.219861  79.977275  54.61203  -20.593447  22.056611  -3.618547  1.243844  20.629796  131.015154  30.260085  41.961147  -11.676049  3.685383  -76.89411  91.915702  11.416323  -24.189821  13.985948  -6.341838  1.755801  10.497083  -4.71921  1.462113  
0.0  89.887642  0.0  12.303989  -62.968419  -109.396393  44.485598  -29.962409  -32.522131  21.726187  25.923295  78.757476  -2.674774  0.54126  -0.678105  -19.159594  24.509905  -32.114903  12.938571  10.572443  52.655074  10.482491  4.997072  -4.769435  1.267537  1.470363  1.373905  3.550889  3.944245  3.83558  3.550889  3.944245  3.83558  -12.408328  21.024736  7.209135  -99.139001  55.176869  -73.855425  -37.913162  1.528721  80.060775  54.606033  -20.467117  22.073353  -3.707226  0.975738  20.492562  131.253094  29.961406  42.261306  -11.805652  3.613432  -76.818602  92.176468  11.44665  -23.987012  14.027701  -6.402466  1.612669  10.526816  -4.767884  1.356631  
0.0  89.887642  0.0  12.547211  -63.198698  -109.662243  44.606475  -30.055394  -32.433475  21.833322  25.873487  78.759798  -2.688996  0.519697  -0.642118  -19.016377  24.463635  -32.259779  13.013807  10.527368  52.723126  10.357136  5.019494  -4.645293  1.298692  1.505069  1.413099  3.640644  4.03501  3.946705  3.640644  4.03501  3.946705  -12.419594  20.683621  7.136878  -99.147863  55.183833  -74.158489  -38.052313  1.885833  80.238418  54.579893  -20.291299  22.059029  -3.619092  0.789344  20.292755  130.966604  29.841928  42.298106  -11.703811  3.481217  -76.807747  92.497487  11.439067  -23.83785  14.024297  -6.463927  1.456478  10.522543  -4.817592  1.240908  
0.0  89.887642  0.0  13.052064  -63.555814  -110.148635  44.90863  -30.144425  -32.292028  21.918771  25.914267  78.717455  -2.662046  0.530075  -0.59355  -18.703541  24.493006  -32.397153  13.19547  10.481635  52.685537  10.386623  5.057318  -4.579935  1.314377  1.546379  1.437656  3.687733  4.145494  4.017344  3.687733  4.145494  4.017344  -12.250592  20.346801  7.111819  -99.035384  55.173  -74.5143  -38.202836  2.349262  80.481933  54.566971  -20.12146  21.995055  -3.643575  0.448996  20.165336  131.370596  29.290273  42.787505  -11.952086  3.190147  -76.712857  92.888507  11.421991  -23.604725  14.137706  -6.497182  1.316646  10.605969  -4.845555  1.138065  
